<?xml version="1.0" encoding="UTF-8"?>
<!DOCTYPE svg PUBLIC "-//W3C//DTD SVG 1.1//EN" "http://www.w3.org/Graphics/SVG/1.1/DTD/svg11.dtd">
<svg xmlns="http://www.w3.org/2000/svg" xmlns:xlink="http://www.w3.org/1999/xlink" version="1.1" width="1219px" height="630px" viewBox="-0.5 -0.5 1219 630"><defs><pattern patternUnits="userSpaceOnUse" width="11" height="11" x="0" y="0" id="mx-pattern-dots-1-66ff66-0"><circle cx="5.5" cy="5.5" r="2.75" stroke="none" fill="#66ff66"/></pattern><pattern patternUnits="userSpaceOnUse" width="11.5" height="11.5" x="0" y="0" patternTransform="rotate(45)" id="mx-pattern-zigzag-line-1-ffb366-0"><path d="M 2.875 0 L 8.625 0 L 2.875 11.5 L 8.625 11.5" stroke="#ffb366" stroke-width="1.5" fill="none"/></pattern><pattern patternUnits="userSpaceOnUse" width="15.75" height="15.75" x="0" y="0" patternTransform="rotate(45)" id="mx-pattern-cross-hatch-1-ff9999-0"><rect x="0" y="0" width="15.75" height="15.75" stroke="#ff9999" stroke-width="0.5" fill="none"/></pattern><style type="text/css">@import url(https://fonts.googleapis.com/css?family=Architects+Daughter);&#xa;</style></defs><g><path d="M 1 410 L 1216 410" fill="none" stroke="#666666" stroke-width="3" stroke-miterlimit="10" stroke-dasharray="3 3" pointer-events="stroke"/><path d="M 1126 80 L 1126 431" fill="none" stroke="#6c8ebf" stroke-width="3" stroke-miterlimit="10" stroke-dasharray="9 9" pointer-events="stroke"/><path d="M 906 180 L 906 431" fill="none" stroke="#82b366" stroke-width="3" stroke-miterlimit="10" stroke-dasharray="9 9" pointer-events="stroke"/><path d="M 796 280 L 796 431" fill="none" stroke="#d79b00" stroke-width="3" stroke-miterlimit="10" stroke-dasharray="9 9" pointer-events="stroke"/><path d="M 741 431 L 741 380" fill="none" stroke="#b85450" stroke-width="3" stroke-miterlimit="10" stroke-dasharray="9 9" pointer-events="stroke"/><rect x="686" y="431" width="440" height="80" fill="#dae8fc" stroke="#6c8ebf" pointer-events="all"/><rect x="686" y="0" width="440" height="80" fill="#dae8fc" stroke="#6c8ebf" pointer-events="all"/><rect x="466" y="100" width="440" height="80" fill="url(#mx-pattern-dots-1-66ff66-0)" stroke="#82b366" pointer-events="all"/><rect x="356" y="200" width="440" height="80" fill="url(#mx-pattern-zigzag-line-1-ffb366-0)" stroke="#d79b00" pointer-events="all"/><path d="M 46 40 Q 46 40 673.63 40" fill="none" stroke="rgb(0, 0, 0)" stroke-miterlimit="10" pointer-events="stroke"/><path d="M 684.88 40 L 669.88 45 L 673.63 40 L 669.88 35 Z" fill="rgb(0, 0, 0)" stroke="rgb(0, 0, 0)" stroke-miterlimit="10" pointer-events="all"/><path d="M 46 40 L 122 40 L 122 67.63" fill="none" stroke="rgb(0, 0, 0)" stroke-miterlimit="10" pointer-events="stroke"/><path d="M 122 78.88 L 117 63.88 L 122 67.63 L 127 63.88 Z" fill="rgb(0, 0, 0)" stroke="rgb(0, 0, 0)" stroke-miterlimit="10" pointer-events="all"/><path d="M 122 120 L 122 140 L 453.63 140" fill="none" stroke="rgb(0, 0, 0)" stroke-miterlimit="10" pointer-events="stroke"/><path d="M 464.88 140 L 449.88 145 L 453.63 140 L 449.88 135 Z" fill="rgb(0, 0, 0)" stroke="rgb(0, 0, 0)" stroke-miterlimit="10" pointer-events="all"/><path d="M 122 120 L 122 167.63" fill="none" stroke="rgb(0, 0, 0)" stroke-miterlimit="10" pointer-events="stroke"/><path d="M 122 178.88 L 117 163.88 L 122 167.63 L 127 163.88 Z" fill="rgb(0, 0, 0)" stroke="rgb(0, 0, 0)" stroke-miterlimit="10" pointer-events="all"/><rect x="86" y="80" width="72" height="40" fill="#f5f5f5" stroke="#666666" pointer-events="all"/><path d="M 122 220 L 122 240 L 343.63 240" fill="none" stroke="rgb(0, 0, 0)" stroke-miterlimit="10" pointer-events="stroke"/><path d="M 354.88 240 L 339.88 245 L 343.63 240 L 339.88 235 Z" fill="rgb(0, 0, 0)" stroke="rgb(0, 0, 0)" stroke-miterlimit="10" pointer-events="all"/><path d="M 122 220 L 122 267.63" fill="none" stroke="rgb(0, 0, 0)" stroke-miterlimit="10" pointer-events="stroke"/><path d="M 122 278.88 L 117 263.88 L 122 267.63 L 127 263.88 Z" fill="rgb(0, 0, 0)" stroke="rgb(0, 0, 0)" stroke-miterlimit="10" pointer-events="all"/><rect x="86" y="180" width="72" height="40" fill="#f5f5f5" stroke="#666666" pointer-events="all"/><path d="M 46 471 L 288.63 471" fill="none" stroke="rgb(0, 0, 0)" stroke-miterlimit="10" pointer-events="stroke"/><path d="M 299.88 471 L 284.88 476 L 288.63 471 L 284.88 466 Z" fill="rgb(0, 0, 0)" stroke="rgb(0, 0, 0)" stroke-miterlimit="10" pointer-events="all"/><rect x="301" y="300" width="440" height="80" fill="url(#mx-pattern-cross-hatch-1-ff9999-0)" stroke="#b85450" pointer-events="all"/><path d="M 122 320 L 122 340 L 288.63 340" fill="none" stroke="rgb(0, 0, 0)" stroke-miterlimit="10" pointer-events="stroke"/><path d="M 299.88 340 L 284.88 345 L 288.63 340 L 284.88 335 Z" fill="rgb(0, 0, 0)" stroke="rgb(0, 0, 0)" stroke-miterlimit="10" pointer-events="all"/><rect x="86" y="280" width="72" height="40" fill="#f5f5f5" stroke="#666666" pointer-events="all"/><rect x="466" y="431" width="440" height="80" fill="url(#mx-pattern-dots-1-66ff66-0)" stroke="#82b366" pointer-events="all"/><rect x="356" y="431" width="440" height="80" fill="url(#mx-pattern-zigzag-line-1-ffb366-0)" stroke="#d79b00" pointer-events="all"/><rect x="301" y="431" width="440" height="80" fill="url(#mx-pattern-cross-hatch-1-ff9999-0)" stroke="#b85450" pointer-events="all"/><path d="M 66 289.37 L 66 310.63" fill="none" stroke="rgb(0, 0, 0)" stroke-miterlimit="10" pointer-events="stroke"/><path d="M 66 281.12 L 69.67 292.12 L 66 289.37 L 62.33 292.12 Z" fill="rgb(0, 0, 0)" stroke="rgb(0, 0, 0)" stroke-miterlimit="10" pointer-events="all"/><path d="M 66 318.88 L 62.33 307.88 L 66 310.63 L 69.67 307.88 Z" fill="rgb(0, 0, 0)" stroke="rgb(0, 0, 0)" stroke-miterlimit="10" pointer-events="all"/><path d="M 66 189.37 L 66 210.63" fill="none" stroke="rgb(0, 0, 0)" stroke-miterlimit="10" pointer-events="stroke"/><path d="M 66 181.12 L 69.67 192.12 L 66 189.37 L 62.33 192.12 Z" fill="rgb(0, 0, 0)" stroke="rgb(0, 0, 0)" stroke-miterlimit="10" pointer-events="all"/><path d="M 66 218.88 L 62.33 207.88 L 66 210.63 L 69.67 207.88 Z" fill="rgb(0, 0, 0)" stroke="rgb(0, 0, 0)" stroke-miterlimit="10" pointer-events="all"/><path d="M 66 89.37 L 66 110.63" fill="none" stroke="rgb(0, 0, 0)" stroke-miterlimit="10" pointer-events="stroke"/><path d="M 66 81.12 L 69.67 92.12 L 66 89.37 L 62.33 92.12 Z" fill="rgb(0, 0, 0)" stroke="rgb(0, 0, 0)" stroke-miterlimit="10" pointer-events="all"/><path d="M 66 118.88 L 62.33 107.88 L 66 110.63 L 69.67 107.88 Z" fill="rgb(0, 0, 0)" stroke="rgb(0, 0, 0)" stroke-miterlimit="10" pointer-events="all"/><path d="M 310.37 616 L 731.63 616" fill="none" stroke="#b85450" stroke-miterlimit="10" pointer-events="stroke"/><path d="M 302.12 616 L 313.12 612.33 L 310.37 616 L 313.12 619.67 Z" fill="#b85450" stroke="#b85450" stroke-miterlimit="10" pointer-events="all"/><path d="M 739.88 616 L 728.88 619.67 L 731.63 616 L 728.88 612.33 Z" fill="#b85450" stroke="#b85450" stroke-miterlimit="10" pointer-events="all"/><path d="M 365.37 586 L 786.63 586" fill="none" stroke="#d79b00" stroke-miterlimit="10" pointer-events="stroke"/><path d="M 357.12 586 L 368.12 582.33 L 365.37 586 L 368.12 589.67 Z" fill="#d79b00" stroke="#d79b00" stroke-miterlimit="10" pointer-events="all"/><path d="M 794.88 586 L 783.88 589.67 L 786.63 586 L 783.88 582.33 Z" fill="#d79b00" stroke="#d79b00" stroke-miterlimit="10" pointer-events="all"/><path d="M 475.37 556 L 896.63 556" fill="none" stroke="#82b366" stroke-miterlimit="10" pointer-events="stroke"/><path d="M 467.12 556 L 478.12 552.33 L 475.37 556 L 478.12 559.67 Z" fill="#82b366" stroke="#82b366" stroke-miterlimit="10" pointer-events="all"/><path d="M 904.88 556 L 893.88 559.67 L 896.63 556 L 893.88 552.33 Z" fill="#82b366" stroke="#82b366" stroke-miterlimit="10" pointer-events="all"/><path d="M 695.37 526 L 1116.63 526" fill="none" stroke="#6c8ebf" stroke-miterlimit="10" pointer-events="stroke"/><path d="M 687.12 526 L 698.12 522.33 L 695.37 526 L 698.12 529.67 Z" fill="#6c8ebf" stroke="#6c8ebf" stroke-miterlimit="10" pointer-events="all"/><path d="M 1124.88 526 L 1113.88 529.67 L 1116.63 526 L 1113.88 522.33 Z" fill="#6c8ebf" stroke="#6c8ebf" stroke-miterlimit="10" pointer-events="all"/></g></svg>